<svg width="15" height="16" viewBox="0 0 15 16" fill="none" xmlns="http://www.w3.org/2000/svg">
<path d="M4.43918 0.343414C3.70037 0.437272 2.92052 0.71298 2.31657 1.09721C1.83869 1.39932 1.24939 1.9566 0.926898 2.41415C0.105996 3.56978 -0.184252 4.96885 0.114791 6.35619C0.490061 8.11016 1.87387 10.5769 3.91439 13.1257C4.44212 13.7856 4.58577 13.944 4.72064 14.0085C4.94052 14.1141 5.23956 14.076 5.40961 13.9147C5.47411 13.856 5.82592 13.4366 6.09858 13.0993L6.20706 12.9644L6.01942 12.8118C5.81126 12.6388 5.55913 12.3484 5.44186 12.146L5.3627 12.0111L5.19559 12.2282C5.1047 12.3455 5.01675 12.4452 5.00502 12.4511C4.9757 12.4628 4.6708 12.0845 4.20464 11.4568C2.82377 9.59722 1.80937 7.77285 1.44289 6.50284C1.28164 5.94262 1.24353 5.64932 1.26112 5.15656C1.2963 4.18279 1.65691 3.3674 2.34882 2.6752C2.87068 2.15311 3.42185 1.84514 4.1548 1.66329C4.51541 1.57237 5.18972 1.55183 5.59431 1.61636C6.34485 1.74248 7.00744 2.07099 7.56448 2.59894C8.25052 3.25301 8.62872 4.0244 8.73133 4.98351C8.77237 5.37948 8.73133 5.78131 8.60819 6.26526C8.55835 6.45298 8.51144 6.63483 8.50265 6.67002L8.48799 6.73455L8.71667 6.66122C8.96587 6.58203 9.30596 6.55857 9.62846 6.59963L9.81023 6.62309L9.83955 6.51164C9.94802 6.11274 9.97148 5.8869 9.97441 5.31495C9.97441 4.62568 9.93336 4.34997 9.73987 3.76043C9.34994 2.56667 8.55835 1.6017 7.43548 0.953491C6.98691 0.695382 6.39469 0.484201 5.84058 0.384477C5.52981 0.331682 4.72357 0.308218 4.43918 0.343414Z" fill="#363A59"/>
<path d="M4.69718 2.83648C3.94371 2.94207 3.30165 3.33804 2.90879 3.94518C2.62147 4.39394 2.50127 4.7987 2.5042 5.32958C2.5042 5.98659 2.72409 6.54094 3.17265 7.02489C3.47756 7.35633 3.94958 7.63497 4.38935 7.74643C4.84964 7.86375 5.42427 7.83148 5.88163 7.65843C6.5061 7.42379 7.08073 6.85478 7.31821 6.23883C7.57034 5.59063 7.54982 4.90136 7.25957 4.27955C6.86378 3.42016 6.07219 2.88048 5.13402 2.82769C4.99036 2.81889 4.79393 2.82182 4.69718 2.83648Z" fill="#363A59"/>
<path d="M9.07415 7.85204C8.76632 7.94297 8.51125 8.26854 8.40277 8.70263C8.33827 8.95487 8.35293 9.54442 8.43209 9.83186C8.62559 10.5563 9.06536 11.0227 9.55497 11.0256C10.0094 11.0285 10.3466 10.7088 10.4902 10.1398C10.5488 9.91399 10.54 9.32737 10.4756 9.08393C10.3172 8.47972 10.0504 8.08376 9.68103 7.90777C9.49926 7.81978 9.25592 7.79632 9.07415 7.85204Z" fill="#363A59"/>
<path d="M11.6398 7.89312C11.3085 8.05151 11.0564 8.37414 10.901 8.83757C10.5257 9.96679 10.9333 11.0286 11.7395 11.0256C12.235 11.0227 12.6689 10.5622 12.8653 9.82894C12.9445 9.54443 12.9591 8.95489 12.8946 8.70265C12.8067 8.34481 12.6161 8.06324 12.3728 7.91952C12.1734 7.8022 11.8509 7.79046 11.6398 7.89312Z" fill="#363A59"/>
<path d="M6.89018 9.7116C6.71428 9.76733 6.57355 9.86119 6.46801 9.99611C6.10153 10.4625 6.20415 11.2045 6.71135 11.7413C6.92537 11.9671 7.09541 12.0727 7.3622 12.149C7.8137 12.281 8.28279 12.0639 8.47335 11.6416C8.56424 11.4333 8.57597 11.052 8.49974 10.7939C8.2652 10.0313 7.50586 9.52095 6.89018 9.7116Z" fill="#363A59"/>
<path d="M13.727 9.73214C13.3664 9.85826 13.0732 10.1222 12.8768 10.4947C12.5367 11.1429 12.6803 11.8381 13.2081 12.0962C13.3517 12.1666 13.4104 12.1783 13.6273 12.1783C13.8589 12.1783 13.8941 12.1695 14.1081 12.0639C14.7443 11.7501 15.1372 10.9552 14.9554 10.3452C14.9026 10.1662 14.8528 10.0782 14.7267 9.94039C14.501 9.69401 14.0817 9.60602 13.727 9.73214Z" fill="#363A59"/>
<path d="M10.1064 11.6328C9.50538 11.7648 9.02456 12.061 8.66395 12.5127C8.32386 12.938 8.13916 13.4337 8.1333 13.9381C8.13037 14.1963 8.13916 14.2491 8.20366 14.3928C8.34439 14.689 8.55548 14.8445 9.08613 15.041C10.165 15.4369 11.2293 15.4223 12.2876 14.9911C12.6658 14.8357 12.83 14.7271 12.9444 14.56C13.1173 14.3106 13.1643 14.0291 13.0939 13.6419C12.9238 12.6799 12.2202 11.9143 11.2732 11.6621C10.9537 11.5741 10.423 11.5624 10.1064 11.6328Z" fill="#363A59"/>
</svg>
