<svg width="21" height="23" viewBox="0 0 21 23" fill="none" xmlns="http://www.w3.org/2000/svg">
<g filter="url(#filter0_d_505_302)">
<rect x="2" y="1" width="17" height="17" rx="5" fill="#FAFAFA"/>
<path d="M11 20L5.80385 16.25H16.1962L11 20Z" fill="#FAFAFA"/>
<path d="M7.43918 2.01672C6.70037 2.11058 5.92052 2.38629 5.31657 2.77052C4.83869 3.07263 4.24939 3.62991 3.9269 4.08746C3.106 5.24309 2.81575 6.64216 3.11479 8.02949C3.49006 9.78346 4.87387 12.2502 6.91439 14.799C7.44212 15.4589 7.58577 15.6173 7.72064 15.6818C7.94052 15.7874 8.23956 15.7493 8.40961 15.588C8.47411 15.5293 8.82592 15.1099 9.09858 14.7726L9.20706 14.6377L9.01942 14.4852C8.81126 14.3121 8.55913 14.0217 8.44186 13.8194L8.3627 13.6844L8.19559 13.9015C8.1047 14.0188 8.01675 14.1185 8.00502 14.1244C7.9757 14.1361 7.6708 13.7578 7.20464 13.1301C5.82377 11.2705 4.80937 9.44616 4.44289 8.17615C4.28164 7.61593 4.24353 7.32263 4.26112 6.82987C4.2963 5.8561 4.65691 5.04071 5.34882 4.34851C5.87068 3.82642 6.42185 3.51845 7.1548 3.3366C7.51541 3.24568 8.18972 3.22514 8.59431 3.28967C9.34485 3.41579 10.0074 3.7443 10.5645 4.27225C11.2505 4.92632 11.6287 5.69771 11.7313 6.65682C11.7724 7.05279 11.7313 7.45462 11.6082 7.93857C11.5584 8.12629 11.5114 8.30814 11.5026 8.34333L11.488 8.40786L11.7167 8.33453C11.9659 8.25534 12.306 8.23188 12.6285 8.27294L12.8102 8.2964L12.8395 8.18495C12.948 7.78605 12.9715 7.56021 12.9744 6.98826C12.9744 6.29899 12.9334 6.02328 12.7399 5.43374C12.3499 4.23998 11.5584 3.27501 10.4355 2.6268C9.98691 2.36869 9.39469 2.15751 8.84058 2.05779C8.52981 2.00499 7.72357 1.98153 7.43918 2.01672Z" fill="#363A59"/>
<path d="M7.69718 4.50979C6.94371 4.61538 6.30165 5.01135 5.90879 5.61849C5.62147 6.06725 5.50127 6.47201 5.5042 7.00289C5.5042 7.6599 5.72409 8.21425 6.17265 8.6982C6.47756 9.02964 6.94958 9.30828 7.38935 9.41974C7.84964 9.53706 8.42427 9.50479 8.88163 9.33174C9.5061 9.0971 10.0807 8.52808 10.3182 7.91214C10.5703 7.26394 10.5498 6.57467 10.2596 5.95286C9.86378 5.09347 9.07219 4.55379 8.13402 4.50099C7.99036 4.4922 7.79393 4.49513 7.69718 4.50979Z" fill="#363A59"/>
<path d="M12.0742 9.52538C11.7663 9.61631 11.5112 9.94188 11.4028 10.376C11.3383 10.6282 11.3529 11.2178 11.4321 11.5052C11.6256 12.2297 12.0654 12.696 12.555 12.699C13.0094 12.7019 13.3466 12.3822 13.4902 11.8132C13.5488 11.5873 13.54 11.0007 13.4756 10.7573C13.3172 10.1531 13.0504 9.7571 12.681 9.58111C12.4993 9.49312 12.2559 9.46966 12.0742 9.52538Z" fill="#363A59"/>
<path d="M14.6398 9.56646C14.3085 9.72485 14.0564 10.0475 13.901 10.5109C13.5257 11.6401 13.9333 12.7019 14.7395 12.699C15.235 12.696 15.6689 12.2355 15.8653 11.5023C15.9445 11.2178 15.9591 10.6282 15.8946 10.376C15.8067 10.0182 15.6161 9.73658 15.3728 9.59286C15.1734 9.47554 14.8509 9.4638 14.6398 9.56646Z" fill="#363A59"/>
<path d="M9.89018 11.3849C9.71428 11.4406 9.57355 11.5345 9.46801 11.6694C9.10153 12.1358 9.20415 12.8778 9.71135 13.4146C9.92537 13.6404 10.0954 13.746 10.3622 13.8223C10.8137 13.9543 11.2828 13.7372 11.4734 13.3149C11.5642 13.1066 11.576 12.7253 11.4997 12.4672C11.2652 11.7046 10.5059 11.1943 9.89018 11.3849Z" fill="#363A59"/>
<path d="M16.727 11.4055C16.3664 11.5316 16.0732 11.7955 15.8768 12.168C15.5367 12.8163 15.6803 13.5114 16.2081 13.7695C16.3517 13.8399 16.4104 13.8516 16.6273 13.8516C16.8589 13.8516 16.8941 13.8428 17.1081 13.7372C17.7443 13.4234 18.1372 12.6285 17.9554 12.0185C17.9026 11.8395 17.8528 11.7516 17.7267 11.6137C17.501 11.3673 17.0817 11.2793 16.727 11.4055Z" fill="#363A59"/>
<path d="M13.1064 13.3061C12.5054 13.4381 12.0246 13.7343 11.664 14.186C11.3239 14.6113 11.1392 15.107 11.1333 15.6115C11.1304 15.8696 11.1392 15.9224 11.2037 16.0661C11.3444 16.3623 11.5555 16.5178 12.0861 16.7143C13.165 17.1103 14.2293 17.0956 15.2876 16.6644C15.6658 16.509 15.83 16.4005 15.9444 16.2333C16.1173 15.984 16.1643 15.7024 16.0939 15.3152C15.9238 14.3532 15.2202 13.5876 14.2732 13.3354C13.9537 13.2474 13.423 13.2357 13.1064 13.3061Z" fill="#363A59"/>
</g>
<defs>
<filter id="filter0_d_505_302" x="0" y="0" width="21" height="23" filterUnits="userSpaceOnUse" color-interpolation-filters="sRGB">
<feFlood flood-opacity="0" result="BackgroundImageFix"/>
<feColorMatrix in="SourceAlpha" type="matrix" values="0 0 0 0 0 0 0 0 0 0 0 0 0 0 0 0 0 0 127 0" result="hardAlpha"/>
<feOffset dy="1"/>
<feGaussianBlur stdDeviation="1"/>
<feComposite in2="hardAlpha" operator="out"/>
<feColorMatrix type="matrix" values="0 0 0 0 0 0 0 0 0 0 0 0 0 0 0 0 0 0 0.25 0"/>
<feBlend mode="normal" in2="BackgroundImageFix" result="effect1_dropShadow_505_302"/>
<feBlend mode="normal" in="SourceGraphic" in2="effect1_dropShadow_505_302" result="shape"/>
</filter>
</defs>
</svg>
