<svg width="15" height="15" viewBox="0 0 15 15" fill="none" xmlns="http://www.w3.org/2000/svg">
<path d="M5.68868 0.0128271C4.18511 0.112548 2.72567 0.790064 1.68406 1.87526C0.777799 2.81968 0.215799 3.98407 0.036312 5.2863C-0.0225362 5.72918 -0.00782417 6.70293 0.0657361 7.10474C0.298186 8.36885 0.82782 9.41592 1.68406 10.3105C2.61681 11.2813 3.84379 11.9119 5.2179 12.1231C5.65926 12.1905 6.5155 12.1905 6.95392 12.1231C8.08086 11.9471 9.06657 11.5071 9.96989 10.7827C10.3171 10.5041 10.5054 10.3163 10.7791 9.97905C12.0767 8.37179 12.4886 6.30991 11.9089 4.31549C11.141 1.65822 8.48986 -0.17195 5.68868 0.0128271ZM7.02454 1.34146C8.97241 1.75794 10.4789 3.29189 10.8408 5.22764C10.9203 5.64119 10.9203 6.54455 10.8408 6.95809C10.473 8.92905 8.93122 10.4659 6.95392 10.8325C6.53904 10.9117 5.63278 10.9117 5.2179 10.8325C3.27296 10.4718 1.73408 8.96424 1.31332 7.01382C1.25447 6.73812 1.24564 6.612 1.24564 6.09287C1.24564 5.41242 1.29272 5.11033 1.48398 4.55893C2.05186 2.93993 3.49659 1.66995 5.14728 1.34439C5.59452 1.25641 5.58275 1.25934 6.17418 1.26814C6.60377 1.274 6.78326 1.28867 7.02454 1.34146Z" fill="#FF8367"/>
<path d="M11.385 10.6536C11.2084 10.7035 11.0554 10.7856 10.9319 10.9C10.7347 11.0819 10.5964 11.4631 10.6317 11.733C10.6523 11.8914 10.773 12.1935 10.8142 12.1935C10.8465 12.1935 12.2059 10.8355 12.2059 10.8062C12.2059 10.7915 12.1353 10.7504 12.0529 10.7123C11.8469 10.6214 11.588 10.5979 11.385 10.6536Z" fill="#FF8367"/>
<path d="M12.5883 12.5923L11.8674 13.3138L12.6325 14.0588C13.4563 14.8624 13.5829 14.9563 13.9036 14.9944C14.2214 15.0355 14.651 14.8448 14.8275 14.5838C14.954 14.399 15.0099 14.1908 14.9982 13.9268C14.9805 13.5631 14.9246 13.4839 14.0801 12.6187C13.677 12.2081 13.3386 11.8708 13.3298 11.8708C13.318 11.8708 12.9855 12.1964 12.5883 12.5923Z" fill="#FF8367"/>
<path d="M5.22696 3.54391C5.03992 3.59896 4.88493 3.79606 4.81902 4.05886C4.77983 4.21157 4.78874 4.56848 4.83684 4.7425C4.95441 5.18109 5.22162 5.46342 5.51911 5.4652C5.79523 5.46697 6.00009 5.27342 6.08738 4.92894C6.123 4.79222 6.11766 4.43708 6.07847 4.2897C5.98227 3.92391 5.82017 3.68419 5.59571 3.57765C5.48526 3.52438 5.33741 3.51018 5.22696 3.54391Z" fill="#FF8367"/>
<path d="M6.78541 3.56878C6.58411 3.66467 6.43091 3.85999 6.3365 4.14055C6.10848 4.82419 6.35609 5.46698 6.84598 5.46521C7.14703 5.46343 7.41068 5.18465 7.53003 4.74073C7.57813 4.56849 7.58704 4.21158 7.54784 4.05887C7.4944 3.84224 7.37861 3.67177 7.23076 3.58476C7.10962 3.51374 6.91367 3.50663 6.78541 3.56878Z" fill="#FF8367"/>
<path d="M3.89968 4.66973C3.7928 4.70347 3.70729 4.76029 3.64316 4.84197C3.42049 5.12431 3.48284 5.57355 3.79102 5.8985C3.92106 6.03523 4.02438 6.09915 4.18649 6.14532C4.46082 6.22523 4.74585 6.09383 4.86164 5.83813C4.91686 5.71206 4.92398 5.48122 4.87767 5.32496C4.73516 4.86328 4.27378 4.55431 3.89968 4.66973Z" fill="#FF8367"/>
<path d="M8.05388 4.68217C7.83477 4.75852 7.65663 4.91834 7.53728 5.14385C7.33064 5.53627 7.41793 5.95711 7.73858 6.11337C7.82586 6.15598 7.86149 6.16309 7.99332 6.16309C8.13405 6.16309 8.15542 6.15776 8.28546 6.09383C8.67203 5.90384 8.91073 5.42263 8.80029 5.05329C8.76822 4.94497 8.73794 4.8917 8.66134 4.80824C8.52417 4.65909 8.26943 4.60582 8.05388 4.68217Z" fill="#FF8367"/>
<path d="M5.85396 5.83285C5.48877 5.91275 5.19662 6.09209 4.97751 6.36555C4.77087 6.62302 4.65864 6.92311 4.65508 7.22853C4.6533 7.38479 4.65864 7.41675 4.69783 7.50376C4.78334 7.6831 4.9116 7.77721 5.23403 7.89618C5.88959 8.1359 6.53623 8.12702 7.17931 7.866C7.40911 7.77189 7.50887 7.70618 7.57835 7.60497C7.68345 7.45404 7.71195 7.28357 7.6692 7.04918C7.56588 6.46676 7.13834 6.00331 6.56295 5.8506C6.36878 5.79733 6.04635 5.79023 5.85396 5.83285Z" fill="#FF8367"/>
</svg>
