<svg width="21" height="23" viewBox="0 0 21 23" fill="none" xmlns="http://www.w3.org/2000/svg">
<g filter="url(#filter0_d_505_357)">
<rect x="2" y="1" width="17" height="17" rx="5" fill="#FAFAFA"/>
<path d="M11 20L5.80385 16.25H16.1962L11 20Z" fill="#FAFAFA"/>
</g>
<path d="M8.71786 2.01285C7.20658 2.11309 5.73966 2.79408 4.6927 3.88484C3.78179 4.8341 3.21691 6.00446 3.0365 7.31338C2.97735 7.75853 2.99214 8.73727 3.06607 9.14115C3.29972 10.4117 3.83207 11.4642 4.6927 12.3633C5.63023 13.3391 6.86351 13.9729 8.24466 14.1852C8.68829 14.253 9.54892 14.253 9.98959 14.1852C11.1223 14.0083 12.1131 13.5661 13.021 12.838C13.37 12.5579 13.5593 12.3692 13.8343 12.0302C15.1386 10.4147 15.5527 8.34224 14.97 6.33759C14.1981 3.66669 11.5334 1.82713 8.71786 2.01285ZM10.0606 3.3483C12.0184 3.76692 13.5327 5.30873 13.8965 7.25442C13.9763 7.67009 13.9763 8.57808 13.8965 8.99375C13.5268 10.9748 11.977 12.5196 9.98959 12.8881C9.57258 12.9677 8.66167 12.9677 8.24466 12.8881C6.28975 12.5255 4.74298 11.0102 4.32005 9.04976C4.2609 8.77265 4.25203 8.64588 4.25203 8.12408C4.25203 7.44015 4.29935 7.1365 4.49159 6.58227C5.06239 4.95497 6.51452 3.67848 8.17368 3.35125C8.62322 3.26281 8.61139 3.26576 9.20585 3.2746C9.63765 3.2805 9.81805 3.29524 10.0606 3.3483Z" fill="#FF8367"/>
<path d="M14.3076 12.7692L13.2307 13.8462L14.6202 15.054C15.4483 15.8617 15.5754 15.9561 15.8978 15.9944C16.2172 16.0357 16.649 15.844 16.8265 15.5817C16.9536 15.3959 17.0098 15.1866 16.998 14.9213C16.9802 14.5558 16.9241 14.4762 16.0752 13.6065C15.6701 13.1938 14.855 12.2308 14.8461 12.2308C14.8343 12.2308 14.7069 12.3712 14.3076 12.7692Z" fill="#FF8367"/>
<path d="M8.25384 5.56207C8.06583 5.6174 7.91006 5.81551 7.84381 6.07966C7.80442 6.23315 7.81337 6.5919 7.86171 6.7668C7.97989 7.20765 8.24847 7.49143 8.54749 7.49321C8.82502 7.495 9.03093 7.30046 9.11867 6.95421C9.15448 6.81678 9.14911 6.45982 9.10971 6.31168C9.01302 5.94402 8.85009 5.70307 8.62448 5.59598C8.51347 5.54244 8.36485 5.52816 8.25384 5.56207Z" fill="#FF8367"/>
<path d="M9.82013 5.58707C9.6178 5.68345 9.46382 5.87977 9.36892 6.16177C9.13973 6.84891 9.38861 7.49501 9.88101 7.49322C10.1836 7.49144 10.4486 7.21123 10.5686 6.76503C10.6169 6.5919 10.6259 6.23316 10.5865 6.07967C10.5328 5.86193 10.4164 5.69059 10.2678 5.60313C10.146 5.53174 9.94905 5.5246 9.82013 5.58707Z" fill="#FF8367"/>
<path d="M6.9195 6.69366C6.81207 6.72757 6.72613 6.78469 6.66167 6.86679C6.43785 7.15057 6.50052 7.60212 6.81028 7.92873C6.94099 8.06616 7.04484 8.13041 7.20778 8.17682C7.48352 8.25713 7.77001 8.12506 7.88639 7.86805C7.9419 7.74133 7.94906 7.50931 7.90251 7.35225C7.75926 6.8882 7.29551 6.57765 6.9195 6.69366Z" fill="#FF8367"/>
<path d="M11.0952 6.70616C10.875 6.78291 10.6959 6.94354 10.5759 7.1702C10.3682 7.56464 10.456 7.98764 10.7783 8.1447C10.866 8.18753 10.9018 8.19467 11.0343 8.19467C11.1758 8.19467 11.1973 8.18932 11.328 8.12506C11.7165 7.93409 11.9564 7.45042 11.8454 7.07918C11.8132 6.97031 11.7828 6.91676 11.7058 6.83288C11.5679 6.68296 11.3118 6.62941 11.0952 6.70616Z" fill="#FF8367"/>
<path d="M8.88403 7.86272C8.51698 7.94304 8.22333 8.1233 8.00309 8.39816C7.79539 8.65695 7.68259 8.95858 7.67901 9.26557C7.67722 9.42263 7.68259 9.45475 7.72198 9.54221C7.80793 9.72247 7.93684 9.81707 8.26093 9.93665C8.91985 10.1776 9.56981 10.1687 10.2162 9.90631C10.4472 9.81171 10.5474 9.74567 10.6173 9.64394C10.7229 9.49223 10.7516 9.3209 10.7086 9.0853C10.6047 8.49989 10.175 8.03406 9.59667 7.88057C9.4015 7.82703 9.07741 7.81989 8.88403 7.86272Z" fill="#FF8367"/>
<defs>
<filter id="filter0_d_505_357" x="0" y="0" width="21" height="23" filterUnits="userSpaceOnUse" color-interpolation-filters="sRGB">
<feFlood flood-opacity="0" result="BackgroundImageFix"/>
<feColorMatrix in="SourceAlpha" type="matrix" values="0 0 0 0 0 0 0 0 0 0 0 0 0 0 0 0 0 0 127 0" result="hardAlpha"/>
<feOffset dy="1"/>
<feGaussianBlur stdDeviation="1"/>
<feComposite in2="hardAlpha" operator="out"/>
<feColorMatrix type="matrix" values="0 0 0 0 0 0 0 0 0 0 0 0 0 0 0 0 0 0 0.25 0"/>
<feBlend mode="normal" in2="BackgroundImageFix" result="effect1_dropShadow_505_357"/>
<feBlend mode="normal" in="SourceGraphic" in2="effect1_dropShadow_505_357" result="shape"/>
</filter>
</defs>
</svg>
