<svg width="18" height="21" viewBox="0 0 18 21" fill="none" xmlns="http://www.w3.org/2000/svg">
<path d="M5.13566 0.489738C4.28094 0.618204 3.37873 0.995569 2.68002 1.52147C2.12716 1.93497 1.44542 2.69773 1.07232 3.324C0.122626 4.90572 -0.213159 6.82066 0.132801 8.71953C0.566948 11.1202 2.16786 14.4964 4.52854 17.9851C5.13906 18.8883 5.30525 19.1051 5.46127 19.1934C5.71566 19.338 6.06162 19.2858 6.25834 19.065C6.33296 18.9847 6.73997 18.4106 7.05541 17.9489L7.1809 17.7643L6.96383 17.5555C6.72301 17.3187 6.43132 16.9212 6.29565 16.6442L6.20407 16.4596L6.01074 16.7566C5.9056 16.9172 5.80384 17.0537 5.79028 17.0617C5.75636 17.0778 5.40361 16.5599 4.86432 15.7008C3.2668 13.1556 2.09324 10.6586 1.66927 8.92026C1.48273 8.15348 1.43863 7.75203 1.45898 7.07759C1.49968 5.74476 1.91687 4.62872 2.71733 3.68129C3.32107 2.96671 3.95872 2.54518 4.80666 2.29628C5.22385 2.17183 6.00396 2.14373 6.47202 2.23205C7.34031 2.40467 8.10686 2.8543 8.75129 3.57691C9.54497 4.47216 9.9825 5.52798 10.1012 6.84073C10.1487 7.38269 10.1012 7.93268 9.95876 8.59508C9.9011 8.85201 9.84683 9.10091 9.83666 9.14909L9.8197 9.23741L10.0843 9.13704C10.3726 9.02865 10.766 8.99653 11.1391 9.05274L11.3494 9.08485L11.3833 8.9323C11.5088 8.38633 11.5359 8.07721 11.5393 7.29437C11.5393 6.35096 11.4918 5.97359 11.268 5.16667C10.8169 3.53275 9.9011 2.21197 8.60205 1.32476C8.08311 0.971481 7.39797 0.682436 6.75693 0.545942C6.3974 0.47368 5.46467 0.441565 5.13566 0.489738Z" fill="#FF8367"/>
<path d="M5.43408 3.90203C4.56239 4.04655 3.81959 4.58852 3.3651 5.41953C3.0327 6.03375 2.89364 6.58775 2.89703 7.31439C2.89703 8.21364 3.15142 8.97239 3.67036 9.63479C4.0231 10.0884 4.56918 10.4698 5.07794 10.6224C5.61045 10.7829 6.27524 10.7388 6.80435 10.5019C7.5268 10.1808 8.19159 9.40194 8.46632 8.55889C8.75801 7.67168 8.73427 6.72826 8.39849 5.87718C7.9406 4.70092 7.02482 3.96225 5.93945 3.88999C5.77325 3.87794 5.54601 3.88196 5.43408 3.90203Z" fill="#FF8367"/>
<path d="M10.4978 10.767C10.1417 10.8914 9.84663 11.337 9.72113 11.9312C9.64651 12.2764 9.66347 13.0834 9.75505 13.4768C9.97891 14.4684 10.4877 15.1067 11.0541 15.1107C11.5798 15.1147 11.9699 14.6771 12.1361 13.8983C12.2039 13.5892 12.1937 12.7863 12.1191 12.4531C11.936 11.6261 11.6273 11.0841 11.1999 10.8432C10.9897 10.7228 10.7081 10.6907 10.4978 10.767Z" fill="#FF8367"/>
<path d="M13.466 10.8232C13.0828 11.04 12.7911 11.4816 12.6113 12.1159C12.1772 13.6615 12.6486 15.1147 13.5814 15.1107C14.1546 15.1067 14.6566 14.4764 14.8838 13.4728C14.9754 13.0834 14.9923 12.2764 14.9177 11.9312C14.816 11.4414 14.5955 11.056 14.314 10.8593C14.0833 10.6987 13.7103 10.6827 13.466 10.8232Z" fill="#FF8367"/>
<path d="M7.97121 13.3122C7.7677 13.3884 7.6049 13.5169 7.48279 13.7016C7.05882 14.3399 7.17753 15.3556 7.76431 16.0902C8.01191 16.3993 8.20863 16.5439 8.51728 16.6482C9.03962 16.8289 9.5823 16.5318 9.80277 15.9537C9.90791 15.6687 9.92148 15.1468 9.83329 14.7935C9.56195 13.7498 8.68348 13.0512 7.97121 13.3122Z" fill="#FF8367"/>
<path d="M15.8807 13.3403C15.4635 13.5129 15.1243 13.8742 14.8971 14.384C14.5036 15.2713 14.6698 16.2227 15.2804 16.576C15.4465 16.6723 15.5144 16.6884 15.7654 16.6884C16.0333 16.6884 16.074 16.6763 16.3216 16.5318C17.0576 16.1023 17.5121 15.0143 17.3018 14.1793C17.2408 13.9344 17.1831 13.814 17.0373 13.6253C16.7761 13.2881 16.2911 13.1676 15.8807 13.3403Z" fill="#FF8367"/>
<path d="M11.6922 15.9417C10.9968 16.1223 10.4406 16.5278 10.0234 17.146C9.62996 17.7281 9.41628 18.4066 9.4095 19.0971C9.4061 19.4504 9.41628 19.5226 9.4909 19.7193C9.6537 20.1248 9.89791 20.3376 10.5118 20.6066C11.76 21.1485 12.9912 21.1284 14.2156 20.5383C14.6532 20.3255 14.8431 20.177 14.9754 19.9482C15.1755 19.6069 15.2298 19.2215 15.1484 18.6916C14.9516 17.3749 14.1376 16.3271 13.0421 15.9818C12.6724 15.8614 12.0585 15.8453 11.6922 15.9417Z" fill="#FF8367"/>
</svg>
