<svg width="26" height="22" viewBox="0 0 26 22" fill="none" xmlns="http://www.w3.org/2000/svg">
<path d="M9.75975 0.833323C7.18016 0.973671 4.67629 1.92721 2.88925 3.45453C1.33443 4.7837 0.370234 6.42247 0.0622984 8.25525C-0.0386641 8.87856 -0.0134235 10.249 0.11278 10.8145C0.511582 12.5937 1.42025 14.0673 2.88925 15.3263C4.48951 16.6926 6.59458 17.5801 8.95205 17.8773C9.70927 17.9723 11.1783 17.9723 11.9304 17.8773C13.8639 17.6297 15.555 17.0105 17.1048 15.9909C17.7005 15.5988 18.0235 15.3346 18.493 14.8599C20.7192 12.5978 21.426 9.69588 20.4315 6.88892C19.1139 3.14906 14.5656 0.573267 9.75975 0.833323ZM12.0516 2.70325C15.3935 3.28941 17.9781 5.44829 18.599 8.17269C18.7353 8.75473 18.7353 10.0261 18.599 10.6081C17.968 13.3821 15.3228 15.5451 11.9304 16.0611C11.2187 16.1725 9.66384 16.1725 8.95205 16.0611C5.61524 15.5533 2.97507 13.4316 2.25319 10.6866C2.15222 10.2986 2.13708 10.1211 2.13708 9.39042C2.13708 8.43275 2.21785 8.00758 2.54598 7.23154C3.52027 4.95295 5.9989 3.16558 8.8309 2.70738C9.59821 2.58354 9.57802 2.58767 10.5927 2.60006C11.3297 2.60831 11.6377 2.62895 12.0516 2.70325Z" fill="#FFBC00"/>
<path d="M19.5325 15.8093C19.2296 15.8794 18.9671 15.995 18.7551 16.156C18.4169 16.4119 18.1796 16.9486 18.2402 17.3283C18.2755 17.5512 18.4825 17.9764 18.5532 17.9764C18.6087 17.9764 20.9409 16.0652 20.9409 16.0239C20.9409 16.0033 20.8198 15.9455 20.6784 15.8918C20.325 15.7639 19.8808 15.7308 19.5325 15.8093Z" fill="#FFBC00"/>
<path d="M21.5971 18.5378L20.3604 19.5532L21.6729 20.6017C23.0863 21.7328 23.3034 21.8649 23.8537 21.9185C24.3989 21.9763 25.1359 21.708 25.4388 21.3406C25.6558 21.0806 25.7518 20.7875 25.7316 20.416C25.7013 19.9041 25.6054 19.7927 24.1565 18.5749C23.465 17.997 22.8844 17.5223 22.8693 17.5223C22.8491 17.5223 22.2786 17.9805 21.5971 18.5378Z" fill="#FFBC00"/>
<path d="M8.96765 5.80297C8.64675 5.88045 8.38085 6.15785 8.26777 6.52771C8.20053 6.74264 8.21582 7.24496 8.29833 7.48987C8.50005 8.10715 8.95848 8.5045 9.46887 8.507C9.94259 8.5095 10.2941 8.2371 10.4438 7.75227C10.5049 7.55984 10.4958 7.06002 10.4285 6.8526C10.2635 6.33778 9.98538 6.0004 9.60029 5.85046C9.41081 5.77548 9.15714 5.75549 8.96765 5.80297Z" fill="#FFBC00"/>
<path d="M11.6413 5.83797C11.2959 5.97292 11.0331 6.24783 10.8711 6.64268C10.4799 7.60484 10.9047 8.50951 11.7452 8.50701C12.2617 8.50451 12.714 8.11216 12.9188 7.48738C13.0013 7.24497 13.0166 6.74265 12.9493 6.52773C12.8576 6.22283 12.659 5.98292 12.4053 5.86047C12.1975 5.7605 11.8613 5.7505 11.6413 5.83797Z" fill="#FFBC00"/>
<path d="M6.69034 7.38748C6.50696 7.43496 6.36027 7.51493 6.25024 7.62989C5.86821 8.02725 5.97518 8.65952 6.50391 9.11686C6.72701 9.30929 6.90428 9.39926 7.18239 9.46423C7.65305 9.57669 8.14205 9.39176 8.34071 9.03189C8.43545 8.85445 8.44768 8.52957 8.36821 8.30965C8.12371 7.65988 7.33215 7.22504 6.69034 7.38748Z" fill="#FFBC00"/>
<path d="M13.8175 7.40498C13.4416 7.51244 13.136 7.73736 12.9312 8.05474C12.5767 8.60704 12.7264 9.19933 13.2766 9.41925C13.4263 9.47923 13.4874 9.48923 13.7136 9.48923C13.9551 9.48923 13.9917 9.48173 14.2148 9.39176C14.878 9.12436 15.2876 8.4471 15.0981 7.92729C15.0431 7.77484 14.9911 7.69987 14.8597 7.58241C14.6244 7.37249 14.1873 7.29751 13.8175 7.40498Z" fill="#FFBC00"/>
<path d="M10.0434 9.02442C9.41691 9.13688 8.91569 9.38929 8.53977 9.77415C8.18524 10.1365 7.9927 10.5589 7.98659 10.9887C7.98353 11.2086 7.9927 11.2536 8.05994 11.3761C8.20664 11.6285 8.42669 11.7609 8.97987 11.9284C10.1046 12.2658 11.214 12.2533 12.3173 11.8859C12.7115 11.7534 12.8827 11.661 13.0019 11.5185C13.1822 11.3061 13.2311 11.0662 13.1577 10.7363C12.9805 9.9166 12.247 9.26433 11.2598 9.04941C10.9267 8.97444 10.3735 8.96444 10.0434 9.02442Z" fill="#FFBC00"/>
</svg>
