<svg width="96" height="145" viewBox="0 0 96 145" fill="none" xmlns="http://www.w3.org/2000/svg">
<path d="M39.2332 50.8835C38.8119 50.3725 38.3238 49.8202 37.8066 49.235C35.442 46.5592 32.4672 43.1931 32.4672 39.9154C32.4672 32.3173 39.8919 32.2344 47.4781 32.1497C47.6513 32.1478 47.8245 32.1459 47.9977 32.1438C48.171 32.1459 48.3443 32.1478 48.5175 32.1497C56.108 32.2344 63.5328 32.3172 63.5328 39.9154C63.5328 43.1902 60.5669 46.5471 58.206 49.2192C57.6838 49.8103 57.1912 50.3678 56.7668 50.8835C52.6655 55.8575 50.744 59.435 52.1398 62.5998M39.2332 50.8835L61.3802 2.00981M39.2332 50.8835C43.33 55.853 45.256 59.435 43.8557 62.5998L39.2332 50.8835ZM52.1398 62.5998C55.2169 69.5643 68.4136 69.1925 73.53 59.5982M52.1398 62.5998L53.0548 62.1963M52.1398 62.5998L53.0545 62.1957C53.0546 62.1959 53.0547 62.1961 53.0548 62.1963M73.53 59.5982C79.5084 48.3825 70.0905 35.8862 61.5876 24.6041C59.5135 21.852 57.4938 19.1721 55.7653 16.6007M73.53 59.5982L72.6476 59.1276C72.6476 59.1277 72.6476 59.1278 72.6475 59.1278M73.53 59.5982L72.6475 59.1278M55.7653 16.6007C46.9464 3.48794 58.2124 1.85111 61.3802 2.00981M55.7653 16.6007L54.9353 17.1586M55.7653 16.6007L54.9355 17.1588C54.9354 17.1587 54.9354 17.1587 54.9353 17.1586M61.3802 2.00981L61.3803 2.00848L61.3802 2.00981ZM54.9353 17.1586C52.6815 13.8073 51.63 11.0749 51.4789 8.83388C51.3244 6.5412 52.1187 4.82457 53.3847 3.60754C54.6145 2.42535 56.2317 1.7663 57.6871 1.40774C59.1495 1.04742 60.5453 0.966725 61.4302 1.01106L61.4317 1.01113C62.3858 1.0603 63.6048 1.39554 64.9729 1.94912C66.3585 2.50976 67.9605 3.32056 69.6979 4.37541C73.1733 6.48547 77.2298 9.59589 81.2258 13.7044C85.3651 17.9578 89.6533 24.6742 92.3217 32.5007C94.9918 40.3325 96.0637 49.3479 93.6692 58.1689L93.2172 59.834L93.1706 59.7873C91.6686 64.3053 88.5288 71.0207 84.624 78.6345C80.2037 87.2536 74.7547 97.1148 69.4573 106.427C64.1589 115.741 59.008 124.514 55.182 130.957C53.2689 134.179 51.6868 136.819 50.5828 138.654C50.0308 139.571 49.5983 140.287 49.3038 140.774C49.1565 141.018 49.0437 141.204 48.9677 141.329L48.8815 141.471L48.8597 141.507L48.8541 141.516L48.8527 141.519C48.8524 141.519 48.8522 141.519 47.9977 141M54.9353 17.1586C56.6805 19.7548 58.7221 22.4636 60.7988 25.2191C61.3666 25.9724 61.9369 26.7292 62.5046 27.4881C65.1617 31.0405 67.7736 34.6576 69.8766 38.2863C74.1041 45.5811 76.1094 52.6333 72.6475 59.1278M72.6475 59.1278C70.2625 63.6001 65.9979 65.9207 61.9731 66.3133C57.9 66.7105 54.356 65.1404 53.0548 62.1963M53.0548 62.1963C52.5021 60.9431 52.5643 59.5581 53.3112 57.8137C54.0709 56.0395 55.4994 53.9925 57.5383 51.5197L57.539 51.5189C57.9191 51.057 58.3888 50.5246 58.8992 49.9462C59.8411 48.8788 60.9214 47.6546 61.8317 46.427C63.2538 44.5091 64.5328 42.2555 64.5328 39.9154C64.5328 37.7997 64.0008 36.1168 62.9853 34.819C61.9769 33.5302 60.5685 32.7195 58.9911 32.1996C56.0554 31.2319 52.2417 31.1903 48.5997 31.1505C48.4024 31.1484 48.2056 31.1462 48.0094 31.1439L47.9977 31.1438L47.9861 31.1439C47.79 31.1462 47.5932 31.1484 47.3959 31.1505C43.756 31.1903 39.9434 31.2319 37.0082 32.1996C35.4312 32.7195 34.0229 33.5303 33.0146 34.819C31.9992 36.1168 31.4672 37.7997 31.4672 39.9154C31.4672 42.2531 32.7449 44.5066 34.1664 46.425C35.0819 47.6604 36.1668 48.8896 37.1122 49.9607C37.6177 50.5333 38.0832 51.0606 38.4616 51.5196C40.4983 53.9902 41.9268 56.0372 42.6865 57.8119C43.4335 59.557 43.4954 60.9426 42.9412 62.1952L42.941 62.1957C41.64 65.1402 38.0957 66.7105 34.023 66.3133C29.9987 65.9207 25.7354 63.6002 23.3526 59.128L23.3525 59.1279C19.8905 52.6309 21.8949 45.5785 26.1217 38.2846C28.2244 34.6562 30.8361 31.0395 33.4934 27.4875C34.0632 26.726 34.6357 25.9665 35.2055 25.2106C37.2804 22.4583 39.3203 19.7523 41.0645 17.1588L41.0647 17.1586C43.3175 13.8072 44.3684 11.0748 44.5192 8.83377C44.6735 6.54123 43.8794 4.82467 42.6137 3.60764C41.3842 2.42541 39.7674 1.76633 38.3123 1.40775C36.8502 1.04742 35.4547 0.966724 34.5698 1.01106L34.5683 1.01113C33.6142 1.06029 32.3952 1.39554 31.0271 1.94904C29.6416 2.50959 28.0396 3.32024 26.3022 4.37478C22.8269 6.48423 18.7704 9.59346 14.7744 13.6997M14.7744 13.6997C10.635 17.953 6.34674 24.6695 3.67834 32.4962C1.00817 40.328 -0.0637445 49.3433 2.33081 58.1644L2.33085 58.1646C3.53633 62.6025 6.96727 70.047 11.3714 78.6345C15.7918 87.2536 21.2408 97.1148 26.5382 106.427C31.8365 115.741 36.9874 124.514 40.8135 130.957C42.7266 134.179 44.3087 136.819 45.4127 138.654C45.9647 139.571 46.3971 140.287 46.6917 140.774C46.839 141.018 46.9518 141.204 47.0278 141.329L47.1139 141.471L47.1358 141.507L47.1413 141.516L47.1427 141.519C47.1431 141.519 47.1432 141.519 47.9977 141M14.7744 13.6997L15.4805 14.3869L14.7743 13.6997C14.7744 13.6997 14.7744 13.6997 14.7744 13.6997ZM47.9977 141L47.1432 141.519L47.9977 142.925L48.8522 141.519L47.9977 141ZM47.9977 141C47.1432 140.481 47.1434 140.48 47.1437 140.48L47.145 140.478L47.1504 140.469L47.172 140.433L47.2576 140.292C47.2988 140.224 47.3508 140.138 47.4133 140.035H48.5821C48.6447 140.138 48.6967 140.224 48.7379 140.292L48.8235 140.433L48.8451 140.469L48.8505 140.478L48.8518 140.48C48.8521 140.48 48.8522 140.481 47.9977 141Z" fill="#006667" stroke="#FAFAFA" stroke-width="2"/>
</svg>
